<svg aria-hidden="true" style="position: absolute; width: 0; height: 0; overflow: hidden;" version="1.1" xmlns="http://www.w3.org/2000/svg" xmlns:xlink="http://www.w3.org/1999/xlink">
<defs>
<symbol id="icon-home" viewBox="0 0 32 32">
<title>home</title>
<path d="M32 18.451l-16-12.42-16 12.42v-5.064l16-12.42 16 12.42zM28 18v12h-8v-8h-8v8h-8v-12l12-9z"></path>
</symbol>
<symbol id="icon-pencil2" viewBox="0 0 32 32">
<title>pencil2</title>
<path d="M12 20l4-2 14-14-2-2-14 14-2 4zM9.041 27.097c-0.989-2.085-2.052-3.149-4.137-4.137l3.097-8.525 4-2.435 12-12h-6l-12 12-6 20 20-6 12-12v-6l-12 12-2.435 4z"></path>
</symbol>
<symbol id="icon-pen" viewBox="0 0 32 32">
<title>pen</title>
<path d="M31.818 9.122l-8.939-8.939c-0.292-0.292-0.676-0.226-0.855 0.146l-1.199 2.497 8.35 8.35 2.497-1.199c0.372-0.178 0.438-0.563 0.146-0.855z"></path>
<path d="M19.231 4.231l-8.231 0.686c-0.547 0.068-1.002 0.184-1.159 0.899-0 0.001-0 0.001-0.001 0.002-2.232 10.721-9.84 21.183-9.84 21.183l1.793 1.793 8.5-8.5c-0.187-0.392-0.293-0.83-0.293-1.293 0-1.657 1.343-3 3-3s3 1.343 3 3-1.343 3-3 3c-0.463 0-0.902-0.105-1.293-0.293l-8.5 8.5 1.793 1.793c0 0 10.462-7.608 21.183-9.84 0.001-0 0.001-0 0.002-0.001 0.714-0.157 0.831-0.612 0.898-1.159l0.686-8.231-8.538-8.539z"></path>
</symbol>
<symbol id="icon-film" viewBox="0 0 32 32">
<title>film</title>
<path d="M0 4v24h32v-24h-32zM6 26h-4v-4h4v4zM6 18h-4v-4h4v4zM6 10h-4v-4h4v4zM24 26h-16v-20h16v20zM30 26h-4v-4h4v4zM30 18h-4v-4h4v4zM30 10h-4v-4h4v4zM12 10v12l8-6z"></path>
</symbol>
<symbol id="icon-connection" viewBox="0 0 40 32">
<title>connection</title>
<path d="M20 18c3.308 0 6.308 1.346 8.481 3.519l-2.827 2.827c-1.449-1.449-3.449-2.346-5.654-2.346s-4.206 0.897-5.654 2.346l-2.827-2.827c2.173-2.173 5.173-3.519 8.481-3.519zM5.858 15.858c3.777-3.777 8.8-5.858 14.142-5.858s10.365 2.080 14.142 5.858l-2.828 2.828c-3.022-3.022-7.040-4.686-11.314-4.686s-8.292 1.664-11.314 4.686l-2.828-2.828zM30.899 4.201c3.334 1.41 6.329 3.429 8.899 6v0l-2.828 2.828c-4.533-4.533-10.56-7.029-16.971-7.029s-12.438 2.496-16.971 7.029l-2.828-2.828c2.571-2.571 5.565-4.589 8.899-6 3.453-1.461 7.12-2.201 10.899-2.201s7.446 0.741 10.899 2.201zM18 28c0-1.105 0.895-2 2-2s2 0.895 2 2c0 1.105-0.895 2-2 2s-2-0.895-2-2z"></path>
</symbol>
<symbol id="icon-book" viewBox="0 0 32 32">
<title>book</title>
<path d="M28 4v26h-21c-1.657 0-3-1.343-3-3s1.343-3 3-3h19v-24h-20c-2.2 0-4 1.8-4 4v24c0 2.2 1.8 4 4 4h24v-28h-2z"></path>
<path d="M7.002 26v0c-0.001 0-0.001 0-0.002 0-0.552 0-1 0.448-1 1s0.448 1 1 1c0.001 0 0.001-0 0.002-0v0h18.997v-2h-18.997z"></path>
</symbol>
<symbol id="icon-books" viewBox="0 0 36 32">
<title>books</title>
<path d="M7 4h-6c-0.55 0-1 0.45-1 1v22c0 0.55 0.45 1 1 1h6c0.55 0 1-0.45 1-1v-22c0-0.55-0.45-1-1-1zM6 10h-4v-2h4v2z"></path>
<path d="M17 4h-6c-0.55 0-1 0.45-1 1v22c0 0.55 0.45 1 1 1h6c0.55 0 1-0.45 1-1v-22c0-0.55-0.45-1-1-1zM16 10h-4v-2h4v2z"></path>
<path d="M23.909 5.546l-5.358 2.7c-0.491 0.247-0.691 0.852-0.443 1.343l8.999 17.861c0.247 0.491 0.852 0.691 1.343 0.443l5.358-2.7c0.491-0.247 0.691-0.852 0.443-1.343l-8.999-17.861c-0.247-0.491-0.852-0.691-1.343-0.443z"></path>
</symbol>
<symbol id="icon-library" viewBox="0 0 34 32">
<title>library</title>
<path d="M32 30v-2h-2v-12h2v-2h-6v2h2v12h-6v-12h2v-2h-6v2h2v12h-6v-12h2v-2h-6v2h2v12h-6v-12h2v-2h-6v2h2v12h-2v2h-2v2h34v-2h-2z"></path>
<path d="M16 0h2l16 10v2h-34v-2l16-10z"></path>
</symbol>
<symbol id="icon-folder-open" viewBox="0 0 32 32">
<title>folder-open</title>
<path d="M26 30l6-16h-26l-6 16zM4 12l-4 18v-26h9l4 4h13v4z"></path>
</symbol>
<symbol id="icon-envelop" viewBox="0 0 32 32">
<title>envelop</title>
<path d="M29 4h-26c-1.65 0-3 1.35-3 3v20c0 1.65 1.35 3 3 3h26c1.65 0 3-1.35 3-3v-20c0-1.65-1.35-3-3-3zM12.461 17.199l-8.461 6.59v-15.676l8.461 9.086zM5.512 8h20.976l-10.488 7.875-10.488-7.875zM12.79 17.553l3.21 3.447 3.21-3.447 6.58 8.447h-19.579l6.58-8.447zM19.539 17.199l8.461-9.086v15.676l-8.461-6.59z"></path>
</symbol>
<symbol id="icon-location" viewBox="0 0 32 32">
<title>location</title>
<path d="M16 0c-5.523 0-10 4.477-10 10 0 10 10 22 10 22s10-12 10-22c0-5.523-4.477-10-10-10zM16 16c-3.314 0-6-2.686-6-6s2.686-6 6-6 6 2.686 6 6-2.686 6-6 6z"></path>
</symbol>
<symbol id="icon-alarm" viewBox="0 0 32 32">
<title>alarm</title>
<path d="M16 4c-7.732 0-14 6.268-14 14s6.268 14 14 14 14-6.268 14-14-6.268-14-14-14zM16 29.25c-6.213 0-11.25-5.037-11.25-11.25s5.037-11.25 11.25-11.25c6.213 0 11.25 5.037 11.25 11.25s-5.037 11.25-11.25 11.25zM29.212 8.974c0.501-0.877 0.788-1.892 0.788-2.974 0-3.314-2.686-6-6-6-1.932 0-3.65 0.913-4.747 2.331 4.121 0.851 7.663 3.287 9.96 6.643v0zM12.748 2.331c-1.097-1.418-2.816-2.331-4.748-2.331-3.314 0-6 2.686-6 6 0 1.082 0.287 2.098 0.788 2.974 2.297-3.356 5.838-5.792 9.96-6.643z"></path>
<path d="M16 18v-8h-2v10h8v-2z"></path>
</symbol>
<symbol id="icon-calendar" viewBox="0 0 32 32">
<title>calendar</title>
<path d="M10 12h4v4h-4zM16 12h4v4h-4zM22 12h4v4h-4zM4 24h4v4h-4zM10 24h4v4h-4zM16 24h4v4h-4zM10 18h4v4h-4zM16 18h4v4h-4zM22 18h4v4h-4zM4 18h4v4h-4zM26 0v2h-4v-2h-14v2h-4v-2h-4v32h30v-32h-4zM28 30h-26v-22h26v22z"></path>
</symbol>
<symbol id="icon-printer" viewBox="0 0 32 32">
<title>printer</title>
<path d="M8 2h16v4h-16v-4z"></path>
<path d="M30 8h-28c-1.1 0-2 0.9-2 2v10c0 1.1 0.9 2 2 2h6v8h16v-8h6c1.1 0 2-0.9 2-2v-10c0-1.1-0.9-2-2-2zM4 14c-1.105 0-2-0.895-2-2s0.895-2 2-2 2 0.895 2 2-0.895 2-2 2zM22 28h-12v-10h12v10z"></path>
</symbol>
<symbol id="icon-display" viewBox="0 0 32 32">
<title>display</title>
<path d="M0 2v20h32v-20h-32zM30 20h-28v-16h28v16zM21 24h-10l-1 4-2 2h16l-2-2z"></path>
</symbol>
<symbol id="icon-download" viewBox="0 0 32 32">
<title>download</title>
<path d="M16 18l8-8h-6v-8h-4v8h-6zM23.273 14.727l-2.242 2.242 8.128 3.031-13.158 4.907-13.158-4.907 8.127-3.031-2.242-2.242-8.727 3.273v8l16 6 16-6v-8z"></path>
</symbol>
<symbol id="icon-cloud-download" viewBox="0 0 32 32">
<title>cloud-download</title>
<path d="M27.844 11.252c-0.101-4.022-3.389-7.252-7.433-7.252-2.369 0-4.477 1.109-5.839 2.835-0.764-0.987-1.959-1.624-3.303-1.624-2.307 0-4.176 1.871-4.176 4.179 0 0.201 0.015 0.399 0.043 0.592-0.351-0.063-0.711-0.098-1.080-0.098-3.344-0-6.054 2.712-6.054 6.058s2.71 6.058 6.054 6.058h2.868l7.078 7.328 7.078-7.328 3.484-0c3.004-0.006 5.438-2.444 5.438-5.451 0-2.565-1.771-4.716-4.156-5.296zM16 26l-6-6h4v-6h4v6h4l-6 6z"></path>
</symbol>
<symbol id="icon-download2" viewBox="0 0 32 32">
<title>download2</title>
<path d="M28 16h-5l-7 7-7-7h-5l-4 8v2h32v-2l-4-8zM0 28h32v2h-32v-2zM18 10v-8h-4v8h-7l9 9 9-9h-7z"></path>
</symbol>
<symbol id="icon-flag" viewBox="0 0 32 32">
<title>flag</title>
<path d="M0 0h4v32h-4v-32z"></path>
<path d="M26 20.094c2.582 0 4.83-0.625 6-1.547v-16c-1.17 0.922-3.418 1.547-6 1.547s-4.83-0.625-6-1.547v16c1.17 0.922 3.418 1.547 6 1.547z"></path>
<path d="M19 1.016c-1.466-0.623-3.61-1.016-6-1.016-3.012 0-5.635 0.625-7 1.547v16c1.365-0.922 3.988-1.547 7-1.547 2.39 0 4.534 0.393 6 1.016v-16z"></path>
</symbol>
<symbol id="icon-attachment" viewBox="0 0 32 32">
<title>attachment</title>
<path d="M20.807 10.22l-2.030-2.029-10.15 10.148c-1.682 1.681-1.682 4.408 0 6.089s4.408 1.681 6.090 0l12.18-12.178c2.804-2.802 2.804-7.346 0-10.148-2.802-2.803-7.347-2.803-10.149 0l-12.788 12.787c-0.009 0.009-0.019 0.018-0.027 0.026-3.909 3.909-3.909 10.245 0 14.153 3.908 3.908 10.246 3.908 14.156 0 0.009-0.009 0.016-0.018 0.026-0.027l0.001 0.001 8.729-8.728-2.031-2.029-8.729 8.727c-0.009 0.008-0.018 0.018-0.026 0.026-2.784 2.783-7.312 2.783-10.096 0-2.783-2.783-2.783-7.31 0-10.093 0.010-0.009 0.019-0.018 0.028-0.026l-0.001-0.002 12.79-12.786c1.678-1.679 4.411-1.679 6.090 0s1.678 4.411 0 6.089l-12.18 12.178c-0.56 0.56-1.47 0.56-2.030 0-0.559-0.559-0.559-1.47 0-2.029l10.15-10.149z"></path>
</symbol>
<symbol id="icon-loop2" viewBox="0 0 32 32">
<title>loop2</title>
<path d="M27.802 5.197c-2.925-3.194-7.13-5.197-11.803-5.197-8.837 0-16 7.163-16 16h3c0-7.18 5.82-13 13-13 3.844 0 7.298 1.669 9.678 4.322l-4.678 4.678h11v-11l-4.198 4.197z"></path>
<path d="M29 16c0 7.18-5.82 13-13 13-3.844 0-7.298-1.669-9.678-4.322l4.678-4.678h-11v11l4.197-4.197c2.925 3.194 7.13 5.197 11.803 5.197 8.837 0 16-7.163 16-16h-3z"></path>
</symbol>
<symbol id="icon-mail2" viewBox="0 0 32 32">
<title>mail2</title>
<path d="M26.667 0h-21.333c-2.934 0-5.334 2.4-5.334 5.334v21.332c0 2.936 2.4 5.334 5.334 5.334h21.333c2.934 0 5.333-2.398 5.333-5.334v-21.332c0-2.934-2.399-5.334-5.333-5.334zM26.667 4c0.25 0 0.486 0.073 0.688 0.198l-11.355 9.388-11.355-9.387c0.202-0.125 0.439-0.198 0.689-0.198h21.333zM5.334 28c-0.060 0-0.119-0.005-0.178-0.013l7.051-9.78-0.914-0.914-7.293 7.293v-19.098l12 14.512 12-14.512v19.098l-7.293-7.293-0.914 0.914 7.051 9.78c-0.058 0.008-0.117 0.013-0.177 0.013h-21.333z"></path>
</symbol>
<symbol id="icon-youtube" viewBox="0 0 32 32">
<title>youtube</title>
<path d="M31.681 9.6c0 0-0.313-2.206-1.275-3.175-1.219-1.275-2.581-1.281-3.206-1.356-4.475-0.325-11.194-0.325-11.194-0.325h-0.012c0 0-6.719 0-11.194 0.325-0.625 0.075-1.987 0.081-3.206 1.356-0.963 0.969-1.269 3.175-1.269 3.175s-0.319 2.588-0.319 5.181v2.425c0 2.587 0.319 5.181 0.319 5.181s0.313 2.206 1.269 3.175c1.219 1.275 2.819 1.231 3.531 1.369 2.563 0.244 10.881 0.319 10.881 0.319s6.725-0.012 11.2-0.331c0.625-0.075 1.988-0.081 3.206-1.356 0.962-0.969 1.275-3.175 1.275-3.175s0.319-2.587 0.319-5.181v-2.425c-0.006-2.588-0.325-5.181-0.325-5.181zM12.694 20.15v-8.994l8.644 4.513-8.644 4.481z"></path>
</symbol>
<symbol id="icon-dropbox" viewBox="0 0 32 32">
<title>dropbox</title>
<path d="M23 1l-7 6 9 6 7-6z"></path>
<path d="M16 7l-7-6-9 6 7 6z"></path>
<path d="M25 13l7 6-9 5-7-6z"></path>
<path d="M16 18l-9-5-7 6 9 5z"></path>
<path d="M22.755 26.424l-6.755-5.79-6.755 5.79-4.245-2.358v2.934l11 5 11-5v-2.934z"></path>
</symbol>
<symbol id="icon-onedrive" viewBox="0 0 32 32">
<title>onedrive</title>
<path d="M10.965 25.887c-1.884-0.471-2.933-1.968-2.936-4.189-0.001-0.71 0.050-1.051 0.228-1.507 0.435-1.12 1.585-1.965 3.099-2.276 0.753-0.155 0.986-0.321 0.986-0.705 0-0.121 0.090-0.48 0.199-0.799 0.498-1.447 1.42-2.653 2.405-3.147 1.031-0.516 1.551-0.633 2.798-0.626 1.771 0.009 2.655 0.394 3.89 1.691l0.68 0.714 0.609-0.211c2.947-1.020 5.885 0.716 6.122 3.617l0.065 0.794 0.58 0.208c1.657 0.594 2.436 1.841 2.295 3.674-0.092 1.199-0.653 2.156-1.541 2.631l-0.417 0.223-9.276 0.018c-7.128 0.014-9.394-0.012-9.785-0.109v0zM3.226 24.561c-1.131-0.284-2.328-1.339-2.89-2.546-0.319-0.685-0.336-0.785-0.336-1.996 0-1.152 0.027-1.337 0.281-1.909 0.535-1.206 1.559-2.077 2.845-2.419 0.271-0.072 0.526-0.188 0.567-0.256s0.085-0.443 0.099-0.831c0.090-2.412 1.587-4.538 3.678-5.221 1.13-0.369 2.612-0.403 3.841 0.116 0.39 0.165 0.346 0.2 1.17-0.942 0.487-0.675 1.41-1.39 2.216-1.818 0.87-0.462 1.775-0.675 2.857-0.672 3.024 0.008 5.63 2.007 6.594 5.058 0.308 0.975 0.293 1.248-0.071 1.256-0.159 0.004-0.613 0.096-1.009 0.205l-0.721 0.199-0.658-0.695c-1.855-1.96-4.882-2.384-7.456-1.044-1.028 0.536-1.854 1.305-2.478 2.307-0.445 0.714-1.012 2.047-1.012 2.378 0 0.235-0.18 0.352-0.948 0.618-2.378 0.824-3.766 2.728-3.765 5.163 0 0.887 0.216 1.971 0.516 2.592 0.113 0.234 0.176 0.457 0.14 0.495-0.092 0.097-3.050 0.064-3.459-0.038v0z"></path>
</symbol>
<symbol id="icon-github" viewBox="0 0 32 32">
<title>github</title>
<path d="M16 0.395c-8.836 0-16 7.163-16 16 0 7.069 4.585 13.067 10.942 15.182 0.8 0.148 1.094-0.347 1.094-0.77 0-0.381-0.015-1.642-0.022-2.979-4.452 0.968-5.391-1.888-5.391-1.888-0.728-1.849-1.776-2.341-1.776-2.341-1.452-0.993 0.11-0.973 0.11-0.973 1.606 0.113 2.452 1.649 2.452 1.649 1.427 2.446 3.743 1.739 4.656 1.33 0.143-1.034 0.558-1.74 1.016-2.14-3.554-0.404-7.29-1.777-7.29-7.907 0-1.747 0.625-3.174 1.649-4.295-0.166-0.403-0.714-2.030 0.155-4.234 0 0 1.344-0.43 4.401 1.64 1.276-0.355 2.645-0.532 4.005-0.539 1.359 0.006 2.729 0.184 4.008 0.539 3.054-2.070 4.395-1.64 4.395-1.64 0.871 2.204 0.323 3.831 0.157 4.234 1.026 1.12 1.647 2.548 1.647 4.295 0 6.145-3.743 7.498-7.306 7.895 0.574 0.497 1.085 1.47 1.085 2.963 0 2.141-0.019 3.864-0.019 4.391 0 0.426 0.288 0.925 1.099 0.768 6.354-2.118 10.933-8.113 10.933-15.18 0-8.837-7.164-16-16-16z"></path>
</symbol>
<symbol id="icon-file-pdf" viewBox="0 0 32 32">
<title>file-pdf</title>
<path d="M26.313 18.421c-0.427-0.42-1.372-0.643-2.812-0.662-0.974-0.011-2.147 0.075-3.38 0.248-0.552-0.319-1.122-0.665-1.568-1.083-1.202-1.122-2.205-2.68-2.831-4.394 0.041-0.16 0.075-0.301 0.108-0.444 0 0 0.677-3.846 0.498-5.146-0.025-0.178-0.040-0.23-0.088-0.369l-0.059-0.151c-0.184-0.425-0.545-0.875-1.111-0.85l-0.341-0.011c-0.631 0-1.146 0.323-1.281 0.805-0.411 1.514 0.013 3.778 0.781 6.711l-0.197 0.478c-0.55 1.34-1.238 2.689-1.846 3.88l-0.079 0.155c-0.639 1.251-1.22 2.313-1.745 3.213l-0.543 0.287c-0.040 0.021-0.97 0.513-1.188 0.645-1.852 1.106-3.079 2.361-3.282 3.357-0.065 0.318-0.017 0.725 0.313 0.913l0.525 0.264c0.228 0.114 0.468 0.172 0.714 0.172 1.319 0 2.85-1.643 4.959-5.324 2.435-0.793 5.208-1.452 7.638-1.815 1.852 1.043 4.129 1.767 5.567 1.767 0.255 0 0.475-0.024 0.654-0.072 0.276-0.073 0.508-0.23 0.65-0.444 0.279-0.42 0.335-0.998 0.26-1.59-0.023-0.176-0.163-0.393-0.315-0.541zM6.614 25.439c0.241-0.658 1.192-1.958 2.6-3.111 0.088-0.072 0.306-0.276 0.506-0.466-1.472 2.348-2.458 3.283-3.106 3.577zM14.951 6.24c0.424 0 0.665 1.069 0.685 2.070s-0.214 1.705-0.505 2.225c-0.241-0.77-0.357-1.984-0.357-2.778 0 0-0.018-1.517 0.177-1.517v0zM12.464 19.922c0.295-0.529 0.603-1.086 0.917-1.677 0.765-1.447 1.249-2.58 1.609-3.511 0.716 1.303 1.608 2.41 2.656 3.297 0.131 0.111 0.269 0.222 0.415 0.333-2.132 0.422-3.974 0.935-5.596 1.558v0zM25.903 19.802c-0.13 0.081-0.502 0.128-0.741 0.128-0.772 0-1.727-0.353-3.066-0.927 0.515-0.038 0.986-0.057 1.409-0.057 0.774 0 1.004-0.003 1.761 0.19s0.767 0.585 0.637 0.667v0z"></path>
<path d="M28.681 7.159c-0.694-0.947-1.662-2.053-2.724-3.116s-2.169-2.030-3.116-2.724c-1.612-1.182-2.393-1.319-2.841-1.319h-15.5c-1.378 0-2.5 1.121-2.5 2.5v27c0 1.378 1.121 2.5 2.5 2.5h23c1.378 0 2.5-1.122 2.5-2.5v-19.5c0-0.448-0.137-1.23-1.319-2.841v0zM24.543 5.457c0.959 0.959 1.712 1.825 2.268 2.543h-4.811v-4.811c0.718 0.556 1.584 1.309 2.543 2.268v0zM28 29.5c0 0.271-0.229 0.5-0.5 0.5h-23c-0.271 0-0.5-0.229-0.5-0.5v-27c0-0.271 0.229-0.5 0.5-0.5 0 0 15.499-0 15.5 0v7c0 0.552 0.448 1 1 1h7v19.5z"></path>
</symbol>
<symbol id="icon-html-five2" viewBox="0 0 32 32">
<title>html-five2</title>
<path d="M1.892 0l2.567 28.801 11.524 3.199 11.554-3.204 2.572-28.796h-28.216zM25.336 26.963l-9.288 2.574v0.015l-0.024-0.007-0.024 0.007v-0.015l-9.288-2.574-2.195-24.609h23.015l-2.195 24.609zM20.336 16.569l-0.408 4.58-3.944 1.065-3.933-1.060-0.252-2.82h-3.547l0.495 5.547 7.252 2.006 7.229-2.006 0.97-10.844h-12.874l-0.322-3.617h13.517l0.316-3.532h-17.694l0.953 10.681z"></path>
</symbol>
</defs>
</svg>
